<?xml version="1.0" encoding="UTF-8" ?>
<!DOCTYPE svg PUBLIC "-//W3C//DTD SVG 1.1//EN" "http://www.w3.org/Graphics/SVG/1.1/DTD/svg11.dtd">
<svg width="145pt" height="114pt" viewBox="0 0 145 114" version="1.1" xmlns="http://www.w3.org/2000/svg">
<g id="#ffffffff">
</g>
<g id="#231f20ff">
<path fill="#231f20" opacity="1.00" d=" M 35.10 4.10 C 37.38 2.34 40.27 1.84 43.07 1.67 C 42.03 6.35 38.89 11.61 41.84 16.21 C 45.31 20.16 51.11 20.43 56.01 20.71 C 69.83 20.91 84.34 13.93 97.63 20.42 C 102.80 22.61 104.94 28.01 108.22 32.04 C 113.36 31.34 118.77 28.52 123.90 31.08 C 129.41 34.08 130.38 40.97 131.42 46.56 C 133.12 55.85 130.22 65.08 126.25 73.39 C 127.81 74.88 129.44 76.56 129.11 78.92 C 128.95 83.97 130.20 89.67 127.07 94.07 C 124.36 98.09 123.61 103.49 119.37 106.37 C 113.60 110.84 105.87 110.21 99.00 110.19 C 93.22 110.14 86.71 108.86 83.13 103.87 C 78.47 98.07 79.89 89.95 76.40 83.66 C 75.18 81.51 72.44 82.26 70.44 82.29 C 65.82 88.94 67.76 98.17 62.40 104.41 C 58.14 109.36 51.12 109.95 45.02 110.12 C 39.10 110.18 32.44 110.37 27.57 106.44 C 24.30 103.89 23.76 99.50 21.84 96.06 C 20.74 93.77 18.70 91.76 18.73 89.07 C 18.52 84.66 18.28 80.23 18.59 75.82 C 20.20 74.93 21.80 74.02 23.37 73.06 C 22.01 68.47 20.35 63.82 20.65 58.95 C 20.64 55.77 22.38 52.99 23.62 50.18 C 20.67 45.32 16.91 40.69 16.01 34.91 C 14.40 26.65 17.34 17.51 23.58 11.86 C 24.72 13.42 25.84 14.99 26.96 16.56 C 29.03 12.07 30.74 6.93 35.10 4.10 M 83.38 50.44 C 71.96 56.50 59.20 61.17 46.11 60.57 C 40.43 60.51 35.61 57.25 30.26 55.91 C 29.35 61.25 28.02 66.54 27.39 71.92 C 26.97 73.40 28.79 73.58 29.78 73.48 C 33.52 73.32 37.26 73.04 41.01 73.10 C 59.67 73.24 78.34 72.78 97.01 73.06 C 104.46 73.04 111.92 73.39 119.37 73.07 C 118.41 68.63 116.39 64.54 114.56 60.42 C 112.11 55.06 109.53 48.59 103.40 46.62 C 96.51 44.26 89.34 46.96 83.38 50.44 M 32.32 77.27 C 30.30 77.67 28.10 78.04 26.60 79.57 C 24.21 81.65 24.75 85.16 24.49 88.00 C 24.12 93.97 26.15 100.34 30.77 104.31 C 37.02 107.36 44.30 106.23 51.03 106.23 C 55.51 106.46 59.61 103.26 61.13 99.15 C 63.22 93.87 65.31 88.09 63.75 82.38 C 61.33 77.72 55.67 77.27 51.03 77.01 C 44.80 76.92 38.52 76.52 32.32 77.27 M 90.32 77.27 C 87.57 77.65 84.49 78.54 83.30 81.33 C 81.24 86.20 81.13 92.01 82.99 96.96 C 85.93 102.31 91.69 106.52 97.98 106.31 C 103.19 106.30 108.49 106.67 113.64 105.67 C 119.28 103.20 123.14 97.22 123.06 91.04 C 123.05 86.75 124.06 80.82 119.57 78.33 C 110.02 76.19 100.01 76.45 90.32 77.27 Z" />
</g>
</svg>
